Standing.Up.2013.DVDRip.XviD-EXViD

 EXViD aims to iNTERNAL those releases which have been lost in the archives
 EXViD aims to PRE non-internal releases which have poor sources and are likely skipped by others
 
http://www.imdb.com/title/tt1905042/
 Subtitles: NL
 Date: 2013.04
 Director: D.J. Caruso

 Genres: Family

 Plot:
 Based on one of the most beloved Young Adult novels of all time: Two kids are stripped naked
 and left together on an island in a lake - victims of a vicious summer camp prank; But rather
 than have to return to camp and face the humiliation, they decide to take off, on the run
 together. What follows is a three day odyssey of discovery and self-discovery

 Cast:
 Chandler Canterbury ... Howie
 Annalise Basso ... Grace
 Radha Mitchell ... Meg
 Val Kilmer ... Hofstadder
 Keith Flippen ... Mr. Russell
 William J. Harrison ... Bryce
 Jared Kemmerling ... Murphy
 Kate Maberly ... Margo Cutter
 Blake Cooper Griffin ... Eric (as Blake Griffin)
 Charles Carroll ... Mr. Carlson
 Katie Kneeland ... Sara Gallagher
 Frank Hoyt Taylor ... Lockwood
 Alexus Lapri Geier ... Tiwana
 Deidra Shores ... Lydia
 Adrian Kali Turner ... Calvin

 Stats:
 Format: AVI
 Format/Info: Audio Video Interleave
 File size: 701 MiB
 Duration: 1h 29mn
 Overall bit rate: 1 097 Kbps
 Writing application: VirtualDubMod 1.5.10.2 (build 2540/release)
 Writing library: VirtualDubMod build 2540/release

 Video
 ID: 0
 Format: MPEG-4 Visual
 Format profile: Advanced Simple@L5
 Format settings, BVOP: Yes
 Format settings, QPel: No
 Format settings, GMC: No warppoints
 Format settings, Matrix: Default (H.263)
 Muxing mode: Packed bitstream
 Codec ID: XVID
 Codec ID/Hint: XviD
 Duration: 1h 29mn
 Bit rate: 903 Kbps
 Width: 624 pixels
 Height: 256 pixels
 Display aspect ratio: 2.40:1
 Frame rate: 25.000 fps
 Color space: YUV
 Chroma subsampling: 4:2:0
 Bit depth: 8 bits
 Scan type: Progressive
 Bits/(Pixel*Frame): 0.226
 Stream size: 577 MiB (82%)
 Writing library: XviD 64

 Audio
 ID: 1
 Format: MPEG Audio
 Format version: Version 1
 Format profile: Layer 3
 Mode: Joint stereo
 Mode extension: MS Stereo
 Codec ID: 55
 Codec ID/Hint: MP3
 Duration: 1h 29mn
 Bit rate mode: Variable
 Bit rate: 182 Kbps
 Minimum bit rate: 192 Kbps
 Channel(s): 2 channels
 Sampling rate: 48.0 KHz
 Stream size: 116 MiB (17%)
 Alignment: Aligned on interleaves
 Interleave, duration: 24 ms (0.60 video frame)
 Interleave, preload duration: 101 ms
 Writing library: LAME4.0a
 Encoding settings: -m j -V 4 -q 5 -lowpass 19.5 --vbr-old -b 192




    	http://www.shotpix.com/images/36422803062701099924.png
    	http://www.shotpix.com/images/62823860335653201371.png
    	http://www.shotpix.com/images/67071979959585418456.png
    	http://www.shotpix.com/images/46803201731776584928.png